<?xml version="1.0" encoding="utf-8"?>
<!-- Generator: Adobe Illustrator 16.0.0, SVG Export Plug-In . SVG Version: 6.00 Build 0)  -->
<!DOCTYPE svg PUBLIC "-//W3C//DTD SVG 1.1//EN" "http://www.w3.org/Graphics/SVG/1.1/DTD/svg11.dtd">
<svg version="1.1" id="POL_x5F_Logo_x5F_Diap_x5F_CMYK"
	 xmlns="http://www.w3.org/2000/svg" xmlns:xlink="http://www.w3.org/1999/xlink" x="0px" y="0px" width="248.031px"
	 height="124.016px" viewBox="0 0 248.031 124.016" enable-background="new 0 0 248.031 124.016" xml:space="preserve">
<g>
	<rect fill="none" width="248.031" height="124.016"/>
</g>
<polygon fill="#FFFFFF" points="212.673,77.934 212.673,71.913 222.369,71.913 222.369,66.884 212.673,66.884 212.673,61.399 
	223.13,61.399 223.13,56.371 205.59,56.371 205.59,82.959 223.223,82.959 223.223,77.934 "/>
<rect x="182.236" y="56.371" fill="#FFFFFF" width="7.087" height="26.588"/>
<polygon fill="#FFFFFF" points="149.242,61.625 155.792,61.625 155.792,82.959 162.881,82.959 162.881,61.625 169.432,61.625 
	169.432,56.371 149.242,56.371 "/>
<rect x="129.354" y="56.371" fill="#FFFFFF" width="7.083" height="26.59"/>
<polygon fill="#FFFFFF" points="107.963,56.371 100.877,56.371 100.877,82.959 117.99,82.959 117.99,77.7 107.963,77.7 "/>
<path fill="#FFFFFF" d="M33.272,56.368h-8.457v26.593H31.9v-5.954l2.133-0.004c7.108,0.16,11.259-4.98,11.162-10.452
	C45.087,60.574,41.386,56.368,33.272,56.368z M33.748,71.624L31.9,71.612V61.36h1.848c2.461,0,4.595,2.344,4.595,5.076
	C38.343,69.247,36.209,71.624,33.748,71.624z"/>
<g>
	<polygon fill="#FFFFFF" points="71.914,64.829 71.914,64.829 71.914,64.827 	"/>
	<path fill="#FFFFFF" d="M93.547,59.643v-2.542L81.413,49.06c0.264,0.879,0.381,2.825-0.75,5.245
		c-1.449,3.106-5.113,5.556-6.257,6.277c-1.382,0.877-2.114,1.74-2.34,2.492c-0.129,0.434-0.318,1.071-0.151,1.756
		c1.507,0.311,2.63,1.548,2.631,3.243c0,1.872-1.519,3.388-3.391,3.388c-1.874,0-3.391-1.516-3.391-3.388
		c0-1.632,1.149-2.992,2.683-3.318l-0.014-0.028c-0.44-1.407-0.641-1.946-0.624-3.747c0.034-3.438,3.695-6.345,3.695-6.345
		c2.572-2.227,4.232-4.193,4.56-6.248c0.31-1.949-0.542-4.409-0.542-4.409c0.916,0.288,1.334,0.633,1.839,1.16
		c0.413,0.433,0.84,1.18,0.84,1.18c0.535-1.666,0.394-3,0.132-4.086c-0.296-1.227-0.812-2.458-2.094-3.594
		c-1.443-1.281-2.663-1.56-2.663-1.56c0.332,0.676,0.556,1.587,0.383,3.489c-0.176,1.932-0.68,3.02-1.979,4.779
		c-1.212,1.642-3.654,3.634-5.115,5.627c-1.354,1.842-1.925,3.504-2.008,4.944c-0.126,2.195,0.777,4.543,0.777,4.543
		c-0.871-0.484-1.886-1.417-2.541-2.675c-0.73-1.401-1.097-2.61-1.146-4.932c-0.043-2.036,0.723-4.941,2.354-6.964
		c1.139-1.412,3.917-4.113,4.934-6.243c1.017-2.13,0.871-3.291,0.871-4.162c0-0.872-0.426-2.159-0.426-2.159
		c0.6,0.111,1.406,0.634,1.652,0.852c0.44,0.387,0.82,0.765,0.82,0.765c0.094-0.648,0.16-1.748-0.131-3.222
		c-0.435-2.203-1.449-3.487-2.873-4.593c-1.564-1.216-3.004-1.115-3.004-1.115c0.636,0.807,1.076,1.677,1.311,2.966
		c0.223,1.228,0.203,2.691-0.446,4.182c-0.785,1.808-2.858,3.406-4.404,4.937c-1.574,1.558-2.995,3.188-4.064,5.4
		c-1.285,2.66-1.397,4.625-0.926,7.254c0.547,3.053,2.22,5.007,2.22,5.007c-1.236-0.468-2.316-1.241-3.026-2.021
		c-0.721-0.794-1.192-1.656-1.464-2.43l-8.25,5.621l-0.012,8.465l22.217,18.663l6.234-5.229c0.921,1.259,1.477,2.804,1.477,4.487
		c0,4.222-3.423,7.646-7.646,7.646c-4.222,0-7.646-3.425-7.646-7.646c0-0.844,0.14-1.652,0.393-2.41l-5.649-4.738
		c-1.159,2.104-1.824,4.515-1.824,7.086c0,8.148,6.604,14.753,14.75,14.753c8.146,0,14.751-6.604,14.751-14.753
		c0-3.407-1.168-6.536-3.111-9.034l10.517-8.823v-2.889L71.46,81.068v-2.892L93.547,59.643z"/>
</g>
</svg>
